HIERARCHY
ROOT Hips
{
	OFFSET 0.000000 89.005402 0.000000
	CHANNELS 6 Xposition Yposition Zposition Xrotation Yrotation Zrotation
	JOINT Spine
	{
		OFFSET 0.116900 10.681000 0.373400
		CHANNELS 3 Xrotation Yrotation Zrotation
		JOINT Spine1
		{
			OFFSET 0.000000 13.840401 0.053500
			CHANNELS 3 Xrotation Yrotation Zrotation
			JOINT Spine2
			{
				OFFSET 0.000000 14.712700 -0.366200
				CHANNELS 3 Xrotation Yrotation Zrotation
				JOINT Neck
				{
					OFFSET 0.000000 35.415497 -3.314200
					CHANNELS 3 Xrotation Yrotation Zrotation
					JOINT Head
					{
						OFFSET 0.000000 16.899200 1.218300
						CHANNELS 3 Xrotation Yrotation Zrotation
						JOINT HeadTop_End
						{
							OFFSET 0.000000 22.206207 2.192500
							CHANNELS 3 Xrotation Yrotation Zrotation
							End Site
							{
								OFFSET 0.000000 22.314178 0.000000
							}
						}
					}
				}
				JOINT LeftShoulder
				{
					OFFSET 12.896400 26.716293 -4.548400
					CHANNELS 3 Xrotation Yrotation Zrotation
					JOINT LeftArm
					{
						OFFSET 19.027000 -4.857010 -1.718400
						CHANNELS 3 Xrotation Yrotation Zrotation
						JOINT LeftForeArm
						{
							OFFSET 24.179897 0.000000 0.000000
							CHANNELS 3 Xrotation Yrotation Zrotation
							JOINT LeftHand
							{
								OFFSET 27.156403 0.000000 0.000000
								CHANNELS 3 Xrotation Yrotation Zrotation
								JOINT LeftHandIndex1
								{
									OFFSET 16.441200 0.000000 0.000000
									CHANNELS 3 Xrotation Yrotation Zrotation
									JOINT LeftHandIndex2
									{
										OFFSET 4.821899 0.000000 0.000000
										CHANNELS 3 Xrotation Yrotation Zrotation
										JOINT LeftHandIndex3
										{
											OFFSET 6.386497 0.000000 0.000000
											CHANNELS 3 Xrotation Yrotation Zrotation
											JOINT LeftHandIndex4
											{
												OFFSET 5.188988 0.000000 0.000000
												CHANNELS 3 Xrotation Yrotation Zrotation
												End Site
												{
													OFFSET -0.178703 5.185913 0.000177
												}
											}
										}
									}
								}
								JOINT LeftHandThumb1
								{
									OFFSET 6.534897 -5.032593 5.900300
									CHANNELS 3 Xrotation Yrotation Zrotation
									JOINT LeftHandThumb2
									{
										OFFSET 3.818176 -2.204422 2.204423
										CHANNELS 3 Xrotation Yrotation Zrotation
										JOINT LeftHandThumb3
										{
											OFFSET 3.252098 -1.877594 1.877601
											CHANNELS 3 Xrotation Yrotation Zrotation
											JOINT LeftHandThumb4
											{
												OFFSET 5.251778 -3.032120 3.032117
												CHANNELS 3 Xrotation Yrotation Zrotation
												End Site
												{
													OFFSET 0.000023 6.780014 0.000000
												}
											}
										}
									}
								}
							}
						}
					}
				}
				JOINT RightShoulder
				{
					OFFSET -12.896300 26.716293 -4.548400
					CHANNELS 3 Xrotation Yrotation Zrotation
					JOINT RightArm
					{
						OFFSET -19.027000 -4.857010 -1.718400
						CHANNELS 3 Xrotation Yrotation Zrotation
						JOINT RightForeArm
						{
							OFFSET -24.179897 0.000000 0.000000
							CHANNELS 3 Xrotation Yrotation Zrotation
							JOINT RightHand
							{
								OFFSET -27.156403 0.000000 0.000000
								CHANNELS 3 Xrotation Yrotation Zrotation
								JOINT RightHandThumb1
								{
									OFFSET -6.591202 -4.852203 5.988100
									CHANNELS 3 Xrotation Yrotation Zrotation
									JOINT RightHandThumb2
									{
										OFFSET -3.818176 -2.204422 2.204423
										CHANNELS 3 Xrotation Yrotation Zrotation
										JOINT RightHandThumb3
										{
											OFFSET -3.252098 -1.877594 1.877601
											CHANNELS 3 Xrotation Yrotation Zrotation
											JOINT RightHandThumb4
											{
												OFFSET -5.251778 -3.032120 3.032117
												CHANNELS 3 Xrotation Yrotation Zrotation
												End Site
												{
													OFFSET -0.000023 6.780014 0.000000
												}
											}
										}
									}
								}
								JOINT RightHandIndex1
								{
									OFFSET -16.029404 0.000000 0.000000
									CHANNELS 3 Xrotation Yrotation Zrotation
									JOINT RightHandIndex2
									{
										OFFSET -5.213303 0.000000 0.000000
										CHANNELS 3 Xrotation Yrotation Zrotation
										JOINT RightHandIndex3
										{
											OFFSET -6.386528 0.000000 0.000000
											CHANNELS 3 Xrotation Yrotation Zrotation
											JOINT RightHandIndex4
											{
												OFFSET -5.189026 0.000000 0.000000
												CHANNELS 3 Xrotation Yrotation Zrotation
												End Site
												{
													OFFSET 0.236702 5.183624 0.001972
												}
											}
										}
									}
								}
							}
						}
					}
				}
			}
		}
	}
	JOINT LeftUpLeg
	{
		OFFSET 14.073000 -7.904099 -1.463000
		CHANNELS 3 Xrotation Yrotation Zrotation
		JOINT LeftLeg
		{
			OFFSET -0.109806 -34.073280 4.093200
			CHANNELS 3 Xrotation Yrotation Zrotation
			JOINT LeftFoot
			{
				OFFSET 0.109806 -29.899420 -6.319000
				CHANNELS 3 Xrotation Yrotation Zrotation
				JOINT LeftToeBase
				{
					OFFSET 1.551100 -14.988700 20.535801
					CHANNELS 3 Xrotation Yrotation Zrotation
					JOINT LeftToe_End
					{
						OFFSET 0.221200 0.570800 13.248301
						CHANNELS 3 Xrotation Yrotation Zrotation
						End Site
						{
							OFFSET 0.000000 13.262435 0.000000
						}
					}
				}
			}
		}
	}
	JOINT RightUpLeg
	{
		OFFSET -13.839300 -7.904099 -1.463000
		CHANNELS 3 Xrotation Yrotation Zrotation
		JOINT RightLeg
		{
			OFFSET 0.109694 -34.073219 4.093300
			CHANNELS 3 Xrotation Yrotation Zrotation
			JOINT RightFoot
			{
				OFFSET -0.109694 -29.899384 -6.319200
				CHANNELS 3 Xrotation Yrotation Zrotation
				JOINT RightToeBase
				{
					OFFSET -1.551100 -14.988700 20.535801
					CHANNELS 3 Xrotation Yrotation Zrotation
					JOINT RightToe_End
					{
						OFFSET -0.221200 0.570900 13.248299
						CHANNELS 3 Xrotation Yrotation Zrotation
						End Site
						{
							OFFSET 0.000000 13.262440 0.000000
						}
					}
				}
			}
		}
	}
}
MOTION
Frames: 5
Frame Time: 0.033333
0.256602 85.023186 1.117089 -4.181184 3.133380 -4.506824 14.531859 -0.854914 2.788349 -1.199117 -0.204556 0.873477 -1.197590 -0.179966 0.882217 -8.195902 -5.329369 -6.180502 -3.412710 -36.072363 9.310361 0.000000 -0.000004 -0.000000 1.886834 -11.736160 7.845806 -40.057769 -44.366672 -40.796143 0.000017 -47.271982 0.000011 58.565662 -8.261431 12.704640 0.041935 0.760422 -6.314231 0.040044 0.743091 -6.169709 0.039118 0.734428 -6.097458 0.000001 -0.000001 0.000000 -3.450195 15.450815 13.804710 4.829589 19.024705 1.553796 0.295880 11.523469 3.479514 -0.000000 0.000000 -0.000000 2.379377 11.611301 -12.772167 -37.898975 40.308228 39.189050 -0.000009 49.413850 0.000004 26.005153 28.467846 -16.326515 -4.295734 -15.137994 -16.295322 5.473480 -18.005926 -0.859805 -0.458716 -9.045851 -3.046771 -0.000001 0.000000 -0.000002 0.064592 -0.947513 7.799739 0.088169 -1.106015 9.115202 0.101316 -1.185101 9.772986 -0.000000 0.000000 -0.000000 -9.036708 -3.765622 3.176938 31.423785 -0.354621 -3.676866 -17.918556 -1.067349 3.349572 -1.210231 0.000000 -0.000001 0.000000 0.000000 -0.000000 -13.485042 3.430399 2.647150 18.582732 -7.394787 3.688318 -0.843994 -0.258828 -0.321711 -1.800656 -0.000000 -0.000000 -0.000000 0.000000 0.000000 
0.397348 84.162727 0.459269 -5.938324 0.663725 -3.818211 16.163860 -0.510988 1.767755 -1.020865 -0.151307 0.910554 -1.019874 -0.121781 0.916644 -8.188959 -5.494401 -6.210136 -3.324748 -36.940282 9.710884 0.000000 0.000001 0.000000 1.819135 -12.158805 6.106791 -43.230999 -40.797714 -47.398993 -0.000012 -48.452351 -0.000009 54.810632 -8.278820 11.441445 0.038973 0.733077 -6.086341 0.038592 0.729411 -6.055770 0.038379 0.727570 -6.040482 0.000001 -0.000000 -0.000001 -3.450188 15.450813 13.804712 4.829590 19.024706 1.553797 0.295881 11.523467 3.479509 0.000000 -0.000000 -0.000001 2.277677 11.735167 -10.957577 -42.055073 37.266222 46.426367 0.000001 48.749246 0.000003 22.461924 28.961839 -18.814139 -4.295731 -15.137994 -16.295313 5.473484 -18.005931 -0.859804 -0.458720 -9.045850 -3.046771 0.000000 0.000000 -0.000001 0.018260 -0.504627 4.144624 0.056396 -0.885639 7.287391 0.083291 -1.075206 8.858997 -0.000000 -0.000005 -0.000000 -8.212546 -2.859057 2.232765 33.405560 0.227312 -3.919408 -19.059633 -1.205938 4.629013 -1.245582 0.000000 -0.000000 -0.000000 -0.000000 -0.000000 -15.466584 7.273333 1.908305 24.070263 -8.083712 5.220779 -2.627411 0.461639 0.308469 -3.466299 -0.000000 -0.000000 -0.000000 -0.000000 -0.000000 
0.554739 83.037575 -0.194345 -7.622043 -2.356123 -3.328044 17.983722 -0.219585 1.097963 -0.821086 -0.090358 0.765950 -0.820600 -0.063297 0.769305 -8.057472 -5.690038 -6.276771 -2.708519 -37.994847 10.413844 0.000000 0.000004 0.000001 1.655984 -12.200908 4.062570 -44.423366 -36.430337 -53.136246 -0.000032 -49.935848 -0.000029 50.740895 -8.142286 10.212897 0.035308 0.697877 -5.793105 0.036738 0.711837 -5.909151 0.037468 0.718772 -5.967174 -0.000002 0.000001 0.000000 -3.450189 15.450810 13.804714 4.829590 19.024705 1.553798 0.295881 11.523468 3.479514 -0.000000 0.000000 0.000001 2.215544 12.195273 -8.709336 -45.516845 32.960662 53.647540 0.000023 48.764648 -0.000029 18.696656 27.816972 -20.827009 -4.295733 -15.137999 -16.295322 5.473479 -18.005926 -0.859804 -0.458711 -9.045854 -3.046769 0.000002 -0.000000 0.000002 0.000216 -0.054998 0.451291 0.031456 -0.662001 5.440419 0.066856 -0.963874 7.935394 -0.000000 -0.000003 -0.000000 -8.076521 -1.054592 1.756838 36.985573 1.203142 -4.288298 -21.252147 -1.018674 4.569623 -0.960064 -0.000001 0.000000 0.000000 -0.000000 0.000000 -19.329020 8.873050 0.607221 32.419155 -3.253835 6.487023 -5.518004 0.547828 5.256592 -6.601290 -0.000000 -0.000000 -0.000000 -0.000000 -0.000000 
0.731307 81.750267 -0.827286 -9.236334 -6.008875 -3.071408 19.707145 -0.117992 0.504741 -0.520865 -0.034274 0.486517 -0.520742 -0.016128 0.487493 -7.911538 -5.929243 -6.313221 -1.854525 -39.194218 11.205099 0.000000 0.000000 -0.000001 1.421300 -11.751924 1.807983 -43.760489 -32.215909 -58.053111 -0.000032 -51.198367 -0.000034 46.791720 -7.899285 9.407652 0.031387 0.658063 -5.461519 0.034708 0.691922 -5.743357 0.036432 0.708836 -5.884275 0.000000 -0.000001 0.000001 -3.450190 15.450808 13.804712 4.829590 19.024703 1.553797 0.295881 11.523470 3.479515 -0.000000 -0.000001 0.000001 2.101928 12.700439 -6.080294 -47.118941 28.276792 60.052936 -0.000013 49.305247 0.000008 14.403669 25.523929 -22.119452 -4.295736 -15.137998 -16.295317 5.473484 -18.005927 -0.859804 -0.458717 -9.045851 -3.046769 -0.000004 0.000001 -0.000000 0.007651 0.326947 -2.683774 0.015936 -0.471580 3.872763 0.054325 -0.869211 7.151442 -0.000001 -0.000003 0.000001 -7.955735 1.752598 1.089421 40.879676 2.730315 -3.665063 -23.845819 -0.975107 3.792112 -0.470186 -0.000000 0.000001 0.000000 0.000000 0.000000 -23.289868 7.900544 -1.335167 38.414466 6.461540 5.889213 -7.084802 0.472983 12.400302 -7.870550 0.000000 0.000002 0.000000 -0.000000 0.000000 
1.144241 80.946503 -1.576083 -10.723143 -10.058696 -3.299918 20.925601 -0.080342 -0.017842 -0.059255 0.012798 0.189400 -0.059313 0.020011 0.188615 -7.833724 -6.231995 -6.253688 -1.144552 -40.534605 11.801691 -0.000000 0.000001 -0.000001 1.185826 -10.961048 -0.495795 -41.599619 -29.143133 -61.951346 0.000036 -51.698986 0.000027 43.608378 -7.690484 9.219509 0.028018 0.621819 -5.159806 0.032908 0.673799 -5.592497 0.035506 0.699787 -5.808848 0.000000 0.000002 -0.000001 -3.450187 15.450810 13.804714 4.829591 19.024708 1.553795 0.295883 11.523468 3.479513 -0.000001 -0.000000 0.000000 1.899010 12.863798 -3.368856 -46.225774 24.826167 65.035668 0.000030 49.765656 -0.000029 9.933416 23.353720 -22.396199 -4.295733 -15.137998 -16.295318 5.473478 -18.005927 -0.859808 -0.458719 -9.045851 -3.046769 -0.000002 0.000001 0.000001 0.022480 0.559879 -4.599247 0.009024 -0.355097 2.915025 0.047293 -0.811280 6.672500 0.000004 -0.000000 0.000001 -7.302353 3.920049 0.403550 43.069875 5.351514 -2.944861 -25.426817 -0.696724 2.559810 -0.010322 -0.000001 0.000000 0.000000 -0.000000 -0.000000 -26.015444 7.163110 -4.723898 37.951434 7.531194 4.558621 -3.138798 7.079913 19.251945 -4.972592 0.000003 0.000000 -0.000000 -0.000000 -0.000002 
